<?xml version="1.0" encoding="UTF-8" standalone="no"?>
<svg width="954px" height="219px" viewBox="0 0 954 219" version="1.1" xmlns="http://www.w3.org/2000/svg" xmlns:xlink="http://www.w3.org/1999/xlink">
    <!-- Generator: Sketch 3.7.2 (28276) - http://www.bohemiancoding.com/sketch -->
    <title>Group 206</title>
    <desc>Created with Sketch.</desc>
    <defs>
        <polygon id="path-1" points="0 220.344214 953.784136 220.344214 953.784136 0.266905045 0 0.266905045"></polygon>
    </defs>
    <g id="Page-1" stroke="none" stroke-width="1" fill="none" fill-rule="evenodd">
        <g id="Community-preservation-act-search" transform="translate(-188.000000, -1333.000000)">
            <g id="Page-1-Copy" transform="translate(188.000000, 1333.000000)">
                <g id="Group-206" transform="translate(0.000000, 0.388881)">
                    <polygon id="Stroke-2" stroke="#B2B2B2" stroke-width="3" stroke-linecap="round" points="666.86529 219.360534 650.897272 219.360534 653.080187 181.035724 662.272443 181.16557 664.634478 195.987653 671.985659 186.717457 686.646027 178.598822 665.44282 205.392285"></polygon>
                    <path d="M688.153531,169.78302 C688.345118,168.98624 688.449442,168.155359 688.449442,167.299558 C688.449442,162.565436 685.343365,158.55727 681.058238,157.195857 C681.621846,155.866578 681.93416,154.404175 681.93416,152.869635 C681.93416,146.743934 676.965355,141.77832 670.836528,141.77832 C670.295884,141.77832 669.765083,141.818323 669.244779,141.893083 C668.156274,137.661949 664.313373,134.534504 659.739553,134.534504 C655.204444,134.534504 651.390413,137.609486 650.264509,141.786845 C650.151656,141.784222 650.039459,141.77832 649.92595,141.77832 C641.753963,141.77832 635.129109,148.399139 635.129109,156.566958 C635.129109,158.963857 635.703215,161.225664 636.716265,163.228436 C631.721872,165.18727 628.184067,170.045335 628.184067,175.731658 C628.184067,183.149258 634.200041,189.162163 641.621426,189.162163 C643.75382,189.162163 645.768768,188.663765 647.559322,187.780421 C649.25277,188.549658 651.131901,188.981822 653.11273,188.981822 C656.210278,188.981822 659.060468,187.931908 661.333271,186.171777 C663.606074,187.931908 666.456264,188.981822 669.553155,188.981822 C673.344879,188.981822 676.767206,187.409902 679.209945,184.88578 C680.696715,186.018323 682.547633,186.699029 684.561268,186.699029 C689.446746,186.699029 693.407092,182.740703 693.407092,177.857718 C693.407092,174.254172 691.247142,171.160172 688.153531,169.78302" id="Fill-4" fill="#FFFFFF"></path>
                    <path d="M688.153531,169.78302 C688.345118,168.98624 688.449442,168.155359 688.449442,167.299558 C688.449442,162.565436 685.343365,158.55727 681.058238,157.195857 C681.621846,155.866578 681.93416,154.404175 681.93416,152.869635 C681.93416,146.743934 676.965355,141.77832 670.836528,141.77832 C670.295884,141.77832 669.765083,141.818323 669.244779,141.893083 C668.156274,137.661949 664.313373,134.534504 659.739553,134.534504 C655.204444,134.534504 651.390413,137.609486 650.264509,141.786845 C650.151656,141.784222 650.039459,141.77832 649.92595,141.77832 C641.753963,141.77832 635.129109,148.399139 635.129109,156.566958 C635.129109,158.963857 635.703215,161.225664 636.716265,163.228436 C631.721872,165.18727 628.184067,170.045335 628.184067,175.731658 C628.184067,183.149258 634.200041,189.162163 641.621426,189.162163 C643.75382,189.162163 645.768768,188.663765 647.559322,187.780421 C649.25277,188.549658 651.131901,188.981822 653.11273,188.981822 C656.210278,188.981822 659.060468,187.931908 661.333271,186.171777 C663.606074,187.931908 666.456264,188.981822 669.553155,188.981822 C673.344879,188.981822 676.767206,187.409902 679.209945,184.88578 C680.696715,186.018323 682.547633,186.699029 684.561268,186.699029 C689.446746,186.699029 693.407092,182.740703 693.407092,177.857718 C693.407092,174.254172 691.247142,171.160172 688.153531,169.78302 L688.153531,169.78302 Z" id="Stroke-6" stroke="#B2B2B2" stroke-width="3" stroke-linecap="round"></path>
                    <mask id="mask-2" fill="white">
                        <use xlink:href="#path-1"></use>
                    </mask>
                    <g id="Clip-9"></g>
                    <polygon id="Fill-8" fill="#FFFFFF" mask="url(#mask-2)" points="315.903256 219.179537 328.979748 219.179537 328.979748 87.85373 315.903256 87.85373"></polygon>
                    <polygon id="Stroke-10" stroke="#B2B2B2" stroke-width="3" mask="url(#mask-2)" points="315.903256 219.179537 328.979748 219.179537 328.979748 87.85373 315.903256 87.85373"></polygon>
                    <polygon id="Fill-11" fill="#FFFFFF" mask="url(#mask-2)" points="198.020612 219.360534 334.771985 219.360534 334.771985 127.356988 198.020612 127.356988"></polygon>
                    <polygon id="Stroke-12" stroke="#B2B2B2" mask="url(#mask-2)" points="198.020612 219.360534 334.771985 219.360534 334.771985 127.356988 198.020612 127.356988"></polygon>
                    <polygon id="Stroke-13" stroke="#B2B2B2" stroke-width="3" mask="url(#mask-2)" points="198.020612 219.360534 334.771985 219.360534 334.771985 127.356988 198.020612 127.356988"></polygon>
                    <polygon id="Fill-14" fill="#FFFFFF" mask="url(#mask-2)" points="345.706439 131.363974 187.179065 131.363974 200.554092 103.980959 332.331411 103.980959"></polygon>
                    <polygon id="Stroke-15" stroke="#B2B2B2" mask="url(#mask-2)" points="345.706439 131.363974 187.179065 131.363974 200.554092 103.980959 332.331411 103.980959"></polygon>
                    <polygon id="Stroke-16" stroke="#B2B2B2" stroke-width="3" mask="url(#mask-2)" points="345.706439 131.363974 187.179065 131.363974 200.554092 103.980959 332.331411 103.980959"></polygon>
                    <polygon id="Fill-17" fill="#FFFFFF" mask="url(#mask-2)" points="253.588816 219.360534 279.203781 219.360534 279.203781 183.286383 253.588816 183.286383"></polygon>
                    <polygon id="Stroke-18" stroke="#B2B2B2" mask="url(#mask-2)" points="253.588816 219.360534 279.203781 219.360534 279.203781 183.286383 253.588816 183.286383"></polygon>
                    <polygon id="Stroke-19" stroke="#B2B2B2" stroke-width="3" mask="url(#mask-2)" points="253.588816 219.360534 279.203781 219.360534 279.203781 183.286383 253.588816 183.286383"></polygon>
                    <polygon id="Fill-20" fill="#FFFFFF" mask="url(#mask-2)" points="213.221624 168.750878 238.83659 168.750878 238.83659 144.357593 213.221624 144.357593"></polygon>
                    <polygon id="Stroke-21" stroke="#B2B2B2" mask="url(#mask-2)" points="213.221624 168.750878 238.83659 168.750878 238.83659 144.357593 213.221624 144.357593"></polygon>
                    <polygon id="Stroke-22" stroke="#B2B2B2" stroke-width="3" mask="url(#mask-2)" points="213.221624 168.750878 238.83659 168.750878 238.83659 144.357593 213.221624 144.357593"></polygon>
                    <polygon id="Fill-23" fill="#FFFFFF" mask="url(#mask-2)" points="221.42445 160.939151 230.633765 160.939151 230.633765 152.16932 221.42445 152.16932"></polygon>
                    <polygon id="Stroke-24" stroke="#B2B2B2" mask="url(#mask-2)" points="221.42445 160.939151 230.633765 160.939151 230.633765 152.16932 221.42445 152.16932"></polygon>
                    <polygon id="Stroke-25" stroke="#B2B2B2" stroke-width="3" mask="url(#mask-2)" points="221.42445 160.939151 230.633765 160.939151 230.633765 152.16932 221.42445 152.16932"></polygon>
                    <polygon id="Fill-26" fill="#FFFFFF" mask="url(#mask-2)" points="253.891287 168.750878 279.506253 168.750878 279.506253 144.357593 253.891287 144.357593"></polygon>
                    <polygon id="Stroke-27" stroke="#B2B2B2" mask="url(#mask-2)" points="253.891287 168.750878 279.506253 168.750878 279.506253 144.357593 253.891287 144.357593"></polygon>
                    <polygon id="Stroke-28" stroke="#B2B2B2" stroke-width="3" mask="url(#mask-2)" points="253.891287 168.750878 279.506253 168.750878 279.506253 144.357593 253.891287 144.357593"></polygon>
                    <polygon id="Fill-29" fill="#FFFFFF" mask="url(#mask-2)" points="262.094113 160.939151 271.303428 160.939151 271.303428 152.16932 262.094113 152.16932"></polygon>
                    <polygon id="Stroke-30" stroke="#B2B2B2" mask="url(#mask-2)" points="262.094113 160.939151 271.303428 160.939151 271.303428 152.16932 262.094113 152.16932"></polygon>
                    <polygon id="Stroke-31" stroke="#B2B2B2" stroke-width="3" mask="url(#mask-2)" points="262.094113 160.939151 271.303428 160.939151 271.303428 152.16932 262.094113 152.16932"></polygon>
                    <polygon id="Fill-32" fill="#FFFFFF" mask="url(#mask-2)" points="293.982252 168.750878 319.597217 168.750878 319.597217 144.357593 293.982252 144.357593"></polygon>
                    <polygon id="Stroke-33" stroke="#B2B2B2" mask="url(#mask-2)" points="293.982252 168.750878 319.597217 168.750878 319.597217 144.357593 293.982252 144.357593"></polygon>
                    <polygon id="Stroke-34" stroke="#B2B2B2" stroke-width="3" mask="url(#mask-2)" points="293.982252 168.750878 319.597217 168.750878 319.597217 144.357593 293.982252 144.357593"></polygon>
                    <polygon id="Fill-35" fill="#FFFFFF" mask="url(#mask-2)" points="302.185077 160.939151 311.394392 160.939151 311.394392 152.16932 302.185077 152.16932"></polygon>
                    <polygon id="Stroke-36" stroke="#B2B2B2" mask="url(#mask-2)" points="302.185077 160.939151 311.394392 160.939151 311.394392 152.16932 302.185077 152.16932"></polygon>
                    <polygon id="Stroke-37" stroke="#B2B2B2" stroke-width="3" mask="url(#mask-2)" points="302.185077 160.939151 311.394392 160.939151 311.394392 152.16932 302.185077 152.16932"></polygon>
                    <polygon id="Fill-38" fill="#FFFFFF" mask="url(#mask-2)" points="212.719036 207.853451 238.334001 207.853451 238.334001 183.460166 212.719036 183.460166"></polygon>
                    <polygon id="Stroke-39" stroke="#B2B2B2" mask="url(#mask-2)" points="212.719036 207.853451 238.334001 207.853451 238.334001 183.460166 212.719036 183.460166"></polygon>
                    <polygon id="Stroke-40" stroke="#B2B2B2" stroke-width="3" mask="url(#mask-2)" points="212.719036 207.853451 238.334001 207.853451 238.334001 183.460166 212.719036 183.460166"></polygon>
                    <polygon id="Fill-41" fill="#FFFFFF" mask="url(#mask-2)" points="220.921861 200.041724 230.131176 200.041724 230.131176 191.271893 220.921861 191.271893"></polygon>
                    <polygon id="Stroke-42" stroke="#B2B2B2" mask="url(#mask-2)" points="220.921861 200.041724 230.131176 200.041724 230.131176 191.271893 220.921861 191.271893"></polygon>
                    <polygon id="Stroke-43" stroke="#B2B2B2" stroke-width="3" mask="url(#mask-2)" points="220.921861 200.041724 230.131176 200.041724 230.131176 191.271893 220.921861 191.271893"></polygon>
                    <polygon id="Fill-44" fill="#FFFFFF" mask="url(#mask-2)" points="293.982252 207.853451 319.597217 207.853451 319.597217 183.460166 293.982252 183.460166"></polygon>
                    <polygon id="Stroke-45" stroke="#B2B2B2" mask="url(#mask-2)" points="293.982252 207.853451 319.597217 207.853451 319.597217 183.460166 293.982252 183.460166"></polygon>
                    <polygon id="Stroke-46" stroke="#B2B2B2" stroke-width="3" mask="url(#mask-2)" points="293.982252 207.853451 319.597217 207.853451 319.597217 183.460166 293.982252 183.460166"></polygon>
                    <polygon id="Fill-47" fill="#FFFFFF" mask="url(#mask-2)" points="302.185077 200.041724 311.394392 200.041724 311.394392 191.271893 302.185077 191.271893"></polygon>
                    <polygon id="Stroke-48" stroke="#B2B2B2" mask="url(#mask-2)" points="302.185077 200.041724 311.394392 200.041724 311.394392 191.271893 302.185077 191.271893"></polygon>
                    <polygon id="Stroke-49" stroke="#B2B2B2" stroke-width="3" mask="url(#mask-2)" points="302.185077 200.041724 311.394392 200.041724 311.394392 191.271893 302.185077 191.271893"></polygon>
                    <polygon id="Fill-50" fill="#FFFFFF" mask="url(#mask-2)" points="4.92090784 219.080513 145.655591 219.080513 145.655591 25.2569555 4.92090784 25.2569555"></polygon>
                    <polygon id="Stroke-51" stroke="#B2B2B2" stroke-width="3" mask="url(#mask-2)" points="4.92090784 219.080513 145.655591 219.080513 145.655591 25.2569555 4.92090784 25.2569555"></polygon>
                    <g id="Group-54" mask="url(#mask-2)">
                        <g transform="translate(4.592847, 50.495549)">
                            <path d="M0.324911142,0.0480691395 L140.078694,0.0480691395" id="Fill-52" stroke="none" fill="#FFFFFF" fill-rule="evenodd"></path>
                            <path d="M0.324911142,0.0480691395 L140.078694,0.0480691395" id="Stroke-53" stroke="#B2B2B2" stroke-width="3" fill="none"></path>
                        </g>
                    </g>
                    <polygon id="Fill-55" fill="#FFFFFF" mask="url(#mask-2)" points="0.984181568 31.9984392 149.262289 31.9984392 149.262289 25.2576113 0.984181568 25.2576113"></polygon>
                    <polygon id="Stroke-56" stroke="#B2B2B2" stroke-width="3" mask="url(#mask-2)" points="0.984181568 31.9984392 149.262289 31.9984392 149.262289 25.2576113 0.984181568 25.2576113"></polygon>
                    <polygon id="Fill-57" fill="#FFFFFF" mask="url(#mask-2)" points="20.9000798 98.0617003 46.5150454 98.0617003 46.5150454 66.453454 20.9000798 66.453454"></polygon>
                    <polygon id="Stroke-58" stroke="#B2B2B2" mask="url(#mask-2)" points="20.9000798 98.0617003 46.5150454 98.0617003 46.5150454 66.453454 20.9000798 66.453454"></polygon>
                    <polygon id="Stroke-59" stroke="#B2B2B2" stroke-width="3" mask="url(#mask-2)" points="20.9000798 98.0617003 46.5150454 98.0617003 46.5150454 66.453454 20.9000798 66.453454"></polygon>
                    <polygon id="Fill-60" fill="#FFFFFF" mask="url(#mask-2)" points="29.102249 87.939638 38.311564 87.939638 38.311564 76.5761721 29.102249 76.5761721"></polygon>
                    <polygon id="Stroke-61" stroke="#B2B2B2" mask="url(#mask-2)" points="29.102249 87.939638 38.311564 87.939638 38.311564 76.5761721 29.102249 76.5761721"></polygon>
                    <polygon id="Stroke-62" stroke="#B2B2B2" stroke-width="3" mask="url(#mask-2)" points="29.102249 87.939638 38.311564 87.939638 38.311564 76.5761721 29.102249 76.5761721"></polygon>
                    <polygon id="Fill-63" fill="#FFFFFF" mask="url(#mask-2)" points="62.4804388 98.0617003 88.0954044 98.0617003 88.0954044 66.453454 62.4804388 66.453454"></polygon>
                    <polygon id="Stroke-64" stroke="#B2B2B2" mask="url(#mask-2)" points="62.4804388 98.0617003 88.0954044 98.0617003 88.0954044 66.453454 62.4804388 66.453454"></polygon>
                    <polygon id="Stroke-65" stroke="#B2B2B2" stroke-width="3" mask="url(#mask-2)" points="62.4804388 98.0617003 88.0954044 98.0617003 88.0954044 66.453454 62.4804388 66.453454"></polygon>
                    <polygon id="Fill-66" fill="#FFFFFF" mask="url(#mask-2)" points="70.6832641 87.939638 79.8925791 87.939638 79.8925791 76.5761721 70.6832641 76.5761721"></polygon>
                    <polygon id="Stroke-67" stroke="#B2B2B2" mask="url(#mask-2)" points="70.6832641 87.939638 79.8925791 87.939638 79.8925791 76.5761721 70.6832641 76.5761721"></polygon>
                    <polygon id="Stroke-68" stroke="#B2B2B2" stroke-width="3" mask="url(#mask-2)" points="70.6832641 87.939638 79.8925791 87.939638 79.8925791 76.5761721 70.6832641 76.5761721"></polygon>
                    <polygon id="Fill-69" fill="#FFFFFF" mask="url(#mask-2)" points="104.061454 98.0617003 129.67642 98.0617003 129.67642 66.453454 104.061454 66.453454"></polygon>
                    <polygon id="Stroke-70" stroke="#B2B2B2" mask="url(#mask-2)" points="104.061454 98.0617003 129.67642 98.0617003 129.67642 66.453454 104.061454 66.453454"></polygon>
                    <polygon id="Stroke-71" stroke="#B2B2B2" stroke-width="3" mask="url(#mask-2)" points="104.061454 98.0617003 129.67642 98.0617003 129.67642 66.453454 104.061454 66.453454"></polygon>
                    <polygon id="Fill-72" fill="#FFFFFF" mask="url(#mask-2)" points="112.264279 87.939638 121.473594 87.939638 121.473594 76.5761721 112.264279 76.5761721"></polygon>
                    <polygon id="Stroke-73" stroke="#B2B2B2" mask="url(#mask-2)" points="112.264279 87.939638 121.473594 87.939638 121.473594 76.5761721 112.264279 76.5761721"></polygon>
                    <polygon id="Stroke-74" stroke="#B2B2B2" stroke-width="3" mask="url(#mask-2)" points="112.264279 87.939638 121.473594 87.939638 121.473594 76.5761721 112.264279 76.5761721"></polygon>
                    <polygon id="Fill-75" fill="#FFFFFF" mask="url(#mask-2)" points="20.9000798 144.515638 46.5150454 144.515638 46.5150454 112.907392 20.9000798 112.907392"></polygon>
                    <polygon id="Stroke-76" stroke="#B2B2B2" mask="url(#mask-2)" points="20.9000798 144.515638 46.5150454 144.515638 46.5150454 112.907392 20.9000798 112.907392"></polygon>
                    <polygon id="Stroke-77" stroke="#B2B2B2" stroke-width="3" mask="url(#mask-2)" points="20.9000798 144.515638 46.5150454 144.515638 46.5150454 112.907392 20.9000798 112.907392"></polygon>
                    <polygon id="Fill-78" fill="#FFFFFF" mask="url(#mask-2)" points="29.102249 134.393576 38.311564 134.393576 38.311564 123.03011 29.102249 123.03011"></polygon>
                    <polygon id="Stroke-79" stroke="#B2B2B2" mask="url(#mask-2)" points="29.102249 134.393576 38.311564 134.393576 38.311564 123.03011 29.102249 123.03011"></polygon>
                    <polygon id="Stroke-80" stroke="#B2B2B2" stroke-width="3" mask="url(#mask-2)" points="29.102249 134.393576 38.311564 134.393576 38.311564 123.03011 29.102249 123.03011"></polygon>
                    <polygon id="Fill-81" fill="#FFFFFF" mask="url(#mask-2)" points="62.4804388 144.515638 88.0954044 144.515638 88.0954044 112.907392 62.4804388 112.907392"></polygon>
                    <polygon id="Stroke-82" stroke="#B2B2B2" mask="url(#mask-2)" points="62.4804388 144.515638 88.0954044 144.515638 88.0954044 112.907392 62.4804388 112.907392"></polygon>
                    <polygon id="Stroke-83" stroke="#B2B2B2" stroke-width="3" mask="url(#mask-2)" points="62.4804388 144.515638 88.0954044 144.515638 88.0954044 112.907392 62.4804388 112.907392"></polygon>
                    <polygon id="Fill-84" fill="#FFFFFF" mask="url(#mask-2)" points="70.6832641 134.393576 79.8925791 134.393576 79.8925791 123.03011 70.6832641 123.03011"></polygon>
                    <polygon id="Stroke-85" stroke="#B2B2B2" mask="url(#mask-2)" points="70.6832641 134.393576 79.8925791 134.393576 79.8925791 123.03011 70.6832641 123.03011"></polygon>
                    <polygon id="Stroke-86" stroke="#B2B2B2" stroke-width="3" mask="url(#mask-2)" points="70.6832641 134.393576 79.8925791 134.393576 79.8925791 123.03011 70.6832641 123.03011"></polygon>
                    <polygon id="Fill-87" fill="#FFFFFF" mask="url(#mask-2)" points="104.061454 144.515638 129.67642 144.515638 129.67642 112.907392 104.061454 112.907392"></polygon>
                    <polygon id="Stroke-88" stroke="#B2B2B2" mask="url(#mask-2)" points="104.061454 144.515638 129.67642 144.515638 129.67642 112.907392 104.061454 112.907392"></polygon>
                    <polygon id="Stroke-89" stroke="#B2B2B2" stroke-width="3" mask="url(#mask-2)" points="104.061454 144.515638 129.67642 144.515638 129.67642 112.907392 104.061454 112.907392"></polygon>
                    <polygon id="Fill-90" fill="#FFFFFF" mask="url(#mask-2)" points="112.264279 134.393576 121.473594 134.393576 121.473594 123.03011 112.264279 123.03011"></polygon>
                    <polygon id="Stroke-91" stroke="#B2B2B2" mask="url(#mask-2)" points="112.264279 134.393576 121.473594 134.393576 121.473594 123.03011 112.264279 123.03011"></polygon>
                    <polygon id="Stroke-92" stroke="#B2B2B2" stroke-width="3" mask="url(#mask-2)" points="112.264279 134.393576 121.473594 134.393576 121.473594 123.03011 112.264279 123.03011"></polygon>
                    <polygon id="Fill-93" fill="#FFFFFF" mask="url(#mask-2)" points="62.4804388 190.970231 88.0954044 190.970231 88.0954044 159.361985 62.4804388 159.361985"></polygon>
                    <polygon id="Stroke-94" stroke="#B2B2B2" mask="url(#mask-2)" points="62.4804388 190.970231 88.0954044 190.970231 88.0954044 159.361985 62.4804388 159.361985"></polygon>
                    <polygon id="Stroke-95" stroke="#B2B2B2" stroke-width="3" mask="url(#mask-2)" points="62.4804388 190.970231 88.0954044 190.970231 88.0954044 159.361985 62.4804388 159.361985"></polygon>
                    <polygon id="Fill-96" fill="#FFFFFF" mask="url(#mask-2)" points="70.6832641 180.848169 79.8925791 180.848169 79.8925791 169.484703 70.6832641 169.484703"></polygon>
                    <polygon id="Stroke-97" stroke="#B2B2B2" mask="url(#mask-2)" points="70.6832641 180.848169 79.8925791 180.848169 79.8925791 169.484703 70.6832641 169.484703"></polygon>
                    <polygon id="Stroke-98" stroke="#B2B2B2" stroke-width="3" mask="url(#mask-2)" points="70.6832641 180.848169 79.8925791 180.848169 79.8925791 169.484703 70.6832641 169.484703"></polygon>
                    <polygon id="Fill-99" fill="#FFFFFF" mask="url(#mask-2)" points="104.061454 190.970231 129.67642 190.970231 129.67642 159.361985 104.061454 159.361985"></polygon>
                    <polygon id="Stroke-100" stroke="#B2B2B2" mask="url(#mask-2)" points="104.061454 190.970231 129.67642 190.970231 129.67642 159.361985 104.061454 159.361985"></polygon>
                    <polygon id="Stroke-101" stroke="#B2B2B2" stroke-width="3" mask="url(#mask-2)" points="104.061454 190.970231 129.67642 190.970231 129.67642 159.361985 104.061454 159.361985"></polygon>
                    <polygon id="Fill-102" fill="#FFFFFF" mask="url(#mask-2)" points="112.264279 180.848169 121.473594 180.848169 121.473594 169.484703 112.264279 169.484703"></polygon>
                    <polygon id="Stroke-103" stroke="#B2B2B2" mask="url(#mask-2)" points="112.264279 180.848169 121.473594 180.848169 121.473594 169.484703 112.264279 169.484703"></polygon>
                    <polygon id="Stroke-104" stroke="#B2B2B2" stroke-width="3" mask="url(#mask-2)" points="112.264279 180.848169 121.473594 180.848169 121.473594 169.484703 112.264279 169.484703"></polygon>
                    <polygon id="Fill-105" fill="#FFFFFF" mask="url(#mask-2)" points="20.901392 206.234315 46.5163576 206.234315 46.5163576 159.642006 20.901392 159.642006"></polygon>
                    <polygon id="Stroke-106" stroke="#B2B2B2" mask="url(#mask-2)" points="20.901392 206.234315 46.5163576 206.234315 46.5163576 159.642006 20.901392 159.642006"></polygon>
                    <polygon id="Stroke-107" stroke="#B2B2B2" stroke-width="3" mask="url(#mask-2)" points="20.901392 206.234315 46.5163576 206.234315 46.5163576 159.642006 20.901392 159.642006"></polygon>
                    <polygon id="Fill-108" fill="#FFFFFF" mask="url(#mask-2)" points="17.8779862 219.360534 50.7575241 219.360534 50.7575241 206.234315 17.8779862 206.234315"></polygon>
                    <polygon id="Stroke-109" stroke="#B2B2B2" stroke-width="3" mask="url(#mask-2)" points="17.8779862 219.360534 50.7575241 219.360534 50.7575241 206.234315 17.8779862 206.234315"></polygon>
                    <polygon id="Fill-110" fill="#FFFFFF" mask="url(#mask-2)" points="14.1066025 219.360534 54.7191829 219.360534 54.7191829 212.797424 14.1066025 212.797424"></polygon>
                    <polygon id="Stroke-111" stroke="#B2B2B2" stroke-width="3" mask="url(#mask-2)" points="14.1066025 219.360534 54.7191829 219.360534 54.7191829 212.797424 14.1066025 212.797424"></polygon>
                    <polygon id="Fill-112" fill="#FFFFFF" mask="url(#mask-2)" points="407.035779 219.360534 393.34122 219.360534 394.908694 199.364297 386.852839 181.16557 393.377307 181.16557 400.187844 194.285231 405.40663 181.16557 413.522848 181.16557 404.99065 199.658745"></polygon>
                    <polygon id="Stroke-113" stroke="#B2B2B2" stroke-width="3" stroke-linecap="round" mask="url(#mask-2)" points="407.035779 219.360534 393.34122 219.360534 394.908694 199.364297 386.852839 181.16557 393.377307 181.16557 400.187844 194.285231 405.40663 181.16557 413.522848 181.16557 404.99065 199.658745"></polygon>
                    <path d="M393.458863,185.14416 C394.369559,185.67338 395.362926,186.091771 396.435684,186.359988 C399.320648,187.080697 402.216767,186.627549 404.642446,185.319911 C405.345152,185.942908 406.202046,186.413107 407.176386,186.657059 C410.411719,187.465644 413.691012,185.499596 414.500009,182.265914 C414.552498,182.055406 414.591866,181.845555 414.621391,181.635047 C419.508181,181.990483 424.089874,178.808608 425.319445,173.895457 C426.695331,168.395377 423.349769,162.821193 417.846882,161.446009 C417.822606,161.440107 417.797673,161.437483 417.773397,161.431581 C417.884281,161.175825 417.980731,160.910887 418.050936,160.632178 C418.738551,157.88181 417.066098,155.094718 414.314327,154.407454 C413.077538,154.097923 411.835501,154.269083 410.777834,154.796991 C409.273349,151.761356 406.502549,149.376917 402.957527,148.490293 C397.539936,147.13675 392.073135,149.715302 389.534603,154.408765 C386.861566,153.937911 384.241018,155.601641 383.572431,158.27397 C383.239122,159.606528 383.456298,160.944988 384.072395,162.059169 C381.520084,163.178596 379.491358,165.416795 378.763064,168.328486 C377.711302,172.532733 379.703285,176.775015 383.338196,178.760736 C383.019321,179.274872 382.771307,179.845406 382.616463,180.463813 C381.814683,183.669296 383.764675,186.918062 386.971794,187.719433 C389.529354,188.358825 392.109878,187.245299 393.458863,185.14416" id="Fill-114" fill="#FFFFFF" mask="url(#mask-2)"></path>
                    <path d="M393.458863,185.14416 C394.369559,185.67338 395.362926,186.091771 396.435684,186.359988 C399.320648,187.080697 402.216767,186.627549 404.642446,185.319911 C405.345152,185.942908 406.202046,186.413107 407.176386,186.657059 C410.411719,187.465644 413.691012,185.499596 414.500009,182.265914 C414.552498,182.055406 414.591866,181.845555 414.621391,181.635047 C419.508181,181.990483 424.089874,178.808608 425.319445,173.895457 C426.695331,168.395377 423.349769,162.821193 417.846882,161.446009 C417.822606,161.440107 417.797673,161.437483 417.773397,161.431581 C417.884281,161.175825 417.980731,160.910887 418.050936,160.632178 C418.738551,157.88181 417.066098,155.094718 414.314327,154.407454 C413.077538,154.097923 411.835501,154.269083 410.777834,154.796991 C409.273349,151.761356 406.502549,149.376917 402.957527,148.490293 C397.539936,147.13675 392.073135,149.715302 389.534603,154.408765 C386.861566,153.937911 384.241018,155.601641 383.572431,158.27397 C383.239122,159.606528 383.456298,160.944988 384.072395,162.059169 C381.520084,163.178596 379.491358,165.416795 378.763064,168.328486 C377.711302,172.532733 379.703285,176.775015 383.338196,178.760736 C383.019321,179.274872 382.771307,179.845406 382.616463,180.463813 C381.814683,183.669296 383.764675,186.918062 386.971794,187.719433 C389.529354,188.358825 392.109878,187.245299 393.458863,185.14416 L393.458863,185.14416 Z" id="Stroke-115" stroke="#B2B2B2" stroke-width="3" stroke-linecap="round" mask="url(#mask-2)"></path>
                    <polygon id="Fill-116" fill="#FFFFFF" mask="url(#mask-2)" points="464.20564 219.080513 604.940323 219.080513 604.940323 25.2569555 464.20564 25.2569555"></polygon>
                    <polygon id="Stroke-117" stroke="#B2B2B2" stroke-width="3" mask="url(#mask-2)" points="464.20564 219.080513 604.940323 219.080513 604.940323 25.2569555 464.20564 25.2569555"></polygon>
                    <g id="Group-120" mask="url(#mask-2)">
                        <g transform="translate(463.877579, 50.495549)">
                            <path d="M0.324911142,0.0480691395 L140.078694,0.0480691395" id="Fill-118" stroke="none" fill="#FFFFFF" fill-rule="evenodd"></path>
                            <path d="M0.324911142,0.0480691395 L140.078694,0.0480691395" id="Stroke-119" stroke="#B2B2B2" stroke-width="3" fill="none"></path>
                        </g>
                    </g>
                    <polygon id="Fill-121" fill="#FFFFFF" mask="url(#mask-2)" points="460.268913 31.9984392 608.547021 31.9984392 608.547021 25.2576113 460.268913 25.2576113"></polygon>
                    <polygon id="Stroke-122" stroke="#B2B2B2" stroke-width="3" mask="url(#mask-2)" points="460.268913 31.9984392 608.547021 31.9984392 608.547021 25.2576113 460.268913 25.2576113"></polygon>
                    <polygon id="Fill-123" fill="#FFFFFF" mask="url(#mask-2)" points="480.184812 98.0617003 505.799777 98.0617003 505.799777 66.453454 480.184812 66.453454"></polygon>
                    <polygon id="Stroke-124" stroke="#B2B2B2" mask="url(#mask-2)" points="480.184812 98.0617003 505.799777 98.0617003 505.799777 66.453454 480.184812 66.453454"></polygon>
                    <polygon id="Stroke-125" stroke="#B2B2B2" stroke-width="3" mask="url(#mask-2)" points="480.184812 98.0617003 505.799777 98.0617003 505.799777 66.453454 480.184812 66.453454"></polygon>
                    <polygon id="Fill-126" fill="#FFFFFF" mask="url(#mask-2)" points="488.386981 87.939638 497.596296 87.939638 497.596296 76.5761721 488.386981 76.5761721"></polygon>
                    <polygon id="Stroke-127" stroke="#B2B2B2" mask="url(#mask-2)" points="488.386981 87.939638 497.596296 87.939638 497.596296 76.5761721 488.386981 76.5761721"></polygon>
                    <polygon id="Stroke-128" stroke="#B2B2B2" stroke-width="3" mask="url(#mask-2)" points="488.386981 87.939638 497.596296 87.939638 497.596296 76.5761721 488.386981 76.5761721"></polygon>
                    <polygon id="Fill-129" fill="#FFFFFF" mask="url(#mask-2)" points="521.765827 98.0617003 547.380792 98.0617003 547.380792 66.453454 521.765827 66.453454"></polygon>
                    <polygon id="Stroke-130" stroke="#B2B2B2" mask="url(#mask-2)" points="521.765827 98.0617003 547.380792 98.0617003 547.380792 66.453454 521.765827 66.453454"></polygon>
                    <polygon id="Stroke-131" stroke="#B2B2B2" stroke-width="3" mask="url(#mask-2)" points="521.765827 98.0617003 547.380792 98.0617003 547.380792 66.453454 521.765827 66.453454"></polygon>
                    <polygon id="Fill-132" fill="#FFFFFF" mask="url(#mask-2)" points="529.967996 87.939638 539.177311 87.939638 539.177311 76.5761721 529.967996 76.5761721"></polygon>
                    <polygon id="Stroke-133" stroke="#B2B2B2" mask="url(#mask-2)" points="529.967996 87.939638 539.177311 87.939638 539.177311 76.5761721 529.967996 76.5761721"></polygon>
                    <polygon id="Stroke-134" stroke="#B2B2B2" stroke-width="3" mask="url(#mask-2)" points="529.967996 87.939638 539.177311 87.939638 539.177311 76.5761721 529.967996 76.5761721"></polygon>
                    <polygon id="Fill-135" fill="#FFFFFF" mask="url(#mask-2)" points="563.346186 98.0617003 588.961151 98.0617003 588.961151 66.453454 563.346186 66.453454"></polygon>
                    <polygon id="Stroke-136" stroke="#B2B2B2" mask="url(#mask-2)" points="563.346186 98.0617003 588.961151 98.0617003 588.961151 66.453454 563.346186 66.453454"></polygon>
                    <polygon id="Stroke-137" stroke="#B2B2B2" stroke-width="3" mask="url(#mask-2)" points="563.346186 98.0617003 588.961151 98.0617003 588.961151 66.453454 563.346186 66.453454"></polygon>
                    <polygon id="Fill-138" fill="#FFFFFF" mask="url(#mask-2)" points="571.549011 87.939638 580.758326 87.939638 580.758326 76.5761721 571.549011 76.5761721"></polygon>
                    <polygon id="Stroke-139" stroke="#B2B2B2" mask="url(#mask-2)" points="571.549011 87.939638 580.758326 87.939638 580.758326 76.5761721 571.549011 76.5761721"></polygon>
                    <polygon id="Stroke-140" stroke="#B2B2B2" stroke-width="3" mask="url(#mask-2)" points="571.549011 87.939638 580.758326 87.939638 580.758326 76.5761721 571.549011 76.5761721"></polygon>
                    <polygon id="Fill-141" fill="#FFFFFF" mask="url(#mask-2)" points="480.184812 144.515638 505.799777 144.515638 505.799777 112.907392 480.184812 112.907392"></polygon>
                    <polygon id="Stroke-142" stroke="#B2B2B2" mask="url(#mask-2)" points="480.184812 144.515638 505.799777 144.515638 505.799777 112.907392 480.184812 112.907392"></polygon>
                    <polygon id="Stroke-143" stroke="#B2B2B2" stroke-width="3" mask="url(#mask-2)" points="480.184812 144.515638 505.799777 144.515638 505.799777 112.907392 480.184812 112.907392"></polygon>
                    <polygon id="Fill-144" fill="#FFFFFF" mask="url(#mask-2)" points="488.386981 134.393576 497.596296 134.393576 497.596296 123.03011 488.386981 123.03011"></polygon>
                    <polygon id="Stroke-145" stroke="#B2B2B2" mask="url(#mask-2)" points="488.386981 134.393576 497.596296 134.393576 497.596296 123.03011 488.386981 123.03011"></polygon>
                    <polygon id="Stroke-146" stroke="#B2B2B2" stroke-width="3" mask="url(#mask-2)" points="488.386981 134.393576 497.596296 134.393576 497.596296 123.03011 488.386981 123.03011"></polygon>
                    <polygon id="Fill-147" fill="#FFFFFF" mask="url(#mask-2)" points="521.765827 144.515638 547.380792 144.515638 547.380792 112.907392 521.765827 112.907392"></polygon>
                    <polygon id="Stroke-148" stroke="#B2B2B2" mask="url(#mask-2)" points="521.765827 144.515638 547.380792 144.515638 547.380792 112.907392 521.765827 112.907392"></polygon>
                    <polygon id="Stroke-149" stroke="#B2B2B2" stroke-width="3" mask="url(#mask-2)" points="521.765827 144.515638 547.380792 144.515638 547.380792 112.907392 521.765827 112.907392"></polygon>
                    <polygon id="Fill-150" fill="#FFFFFF" mask="url(#mask-2)" points="529.967996 134.393576 539.177311 134.393576 539.177311 123.03011 529.967996 123.03011"></polygon>
                    <polygon id="Stroke-151" stroke="#B2B2B2" mask="url(#mask-2)" points="529.967996 134.393576 539.177311 134.393576 539.177311 123.03011 529.967996 123.03011"></polygon>
                    <polygon id="Stroke-152" stroke="#B2B2B2" stroke-width="3" mask="url(#mask-2)" points="529.967996 134.393576 539.177311 134.393576 539.177311 123.03011 529.967996 123.03011"></polygon>
                    <polygon id="Fill-153" fill="#FFFFFF" mask="url(#mask-2)" points="563.346186 144.515638 588.961151 144.515638 588.961151 112.907392 563.346186 112.907392"></polygon>
                    <polygon id="Stroke-154" stroke="#B2B2B2" mask="url(#mask-2)" points="563.346186 144.515638 588.961151 144.515638 588.961151 112.907392 563.346186 112.907392"></polygon>
                    <polygon id="Stroke-155" stroke="#B2B2B2" stroke-width="3" mask="url(#mask-2)" points="563.346186 144.515638 588.961151 144.515638 588.961151 112.907392 563.346186 112.907392"></polygon>
                    <polygon id="Fill-156" fill="#FFFFFF" mask="url(#mask-2)" points="571.549011 134.393576 580.758326 134.393576 580.758326 123.03011 571.549011 123.03011"></polygon>
                    <polygon id="Stroke-157" stroke="#B2B2B2" mask="url(#mask-2)" points="571.549011 134.393576 580.758326 134.393576 580.758326 123.03011 571.549011 123.03011"></polygon>
                    <polygon id="Stroke-158" stroke="#B2B2B2" stroke-width="3" mask="url(#mask-2)" points="571.549011 134.393576 580.758326 134.393576 580.758326 123.03011 571.549011 123.03011"></polygon>
                    <polygon id="Fill-159" fill="#FFFFFF" mask="url(#mask-2)" points="521.765827 190.970231 547.380792 190.970231 547.380792 159.361985 521.765827 159.361985"></polygon>
                    <polygon id="Stroke-160" stroke="#B2B2B2" mask="url(#mask-2)" points="521.765827 190.970231 547.380792 190.970231 547.380792 159.361985 521.765827 159.361985"></polygon>
                    <polygon id="Stroke-161" stroke="#B2B2B2" stroke-width="3" mask="url(#mask-2)" points="521.765827 190.970231 547.380792 190.970231 547.380792 159.361985 521.765827 159.361985"></polygon>
                    <polygon id="Fill-162" fill="#FFFFFF" mask="url(#mask-2)" points="529.967996 180.848169 539.177311 180.848169 539.177311 169.484703 529.967996 169.484703"></polygon>
                    <polygon id="Stroke-163" stroke="#B2B2B2" mask="url(#mask-2)" points="529.967996 180.848169 539.177311 180.848169 539.177311 169.484703 529.967996 169.484703"></polygon>
                    <polygon id="Stroke-164" stroke="#B2B2B2" stroke-width="3" mask="url(#mask-2)" points="529.967996 180.848169 539.177311 180.848169 539.177311 169.484703 529.967996 169.484703"></polygon>
                    <polygon id="Fill-165" fill="#FFFFFF" mask="url(#mask-2)" points="563.346186 190.970231 588.961151 190.970231 588.961151 159.361985 563.346186 159.361985"></polygon>
                    <polygon id="Stroke-166" stroke="#B2B2B2" mask="url(#mask-2)" points="563.346186 190.970231 588.961151 190.970231 588.961151 159.361985 563.346186 159.361985"></polygon>
                    <polygon id="Stroke-167" stroke="#B2B2B2" stroke-width="3" mask="url(#mask-2)" points="563.346186 190.970231 588.961151 190.970231 588.961151 159.361985 563.346186 159.361985"></polygon>
                    <polygon id="Fill-168" fill="#FFFFFF" mask="url(#mask-2)" points="571.549011 180.848169 580.758326 180.848169 580.758326 169.484703 571.549011 169.484703"></polygon>
                    <polygon id="Stroke-169" stroke="#B2B2B2" mask="url(#mask-2)" points="571.549011 180.848169 580.758326 180.848169 580.758326 169.484703 571.549011 169.484703"></polygon>
                    <polygon id="Stroke-170" stroke="#B2B2B2" stroke-width="3" mask="url(#mask-2)" points="571.549011 180.848169 580.758326 180.848169 580.758326 169.484703 571.549011 169.484703"></polygon>
                    <polygon id="Fill-171" fill="#FFFFFF" mask="url(#mask-2)" points="480.186124 206.234315 505.801089 206.234315 505.801089 159.642006 480.186124 159.642006"></polygon>
                    <polygon id="Stroke-172" stroke="#B2B2B2" mask="url(#mask-2)" points="480.186124 206.234315 505.801089 206.234315 505.801089 159.642006 480.186124 159.642006"></polygon>
                    <polygon id="Stroke-173" stroke="#B2B2B2" stroke-width="3" mask="url(#mask-2)" points="480.186124 206.234315 505.801089 206.234315 505.801089 159.642006 480.186124 159.642006"></polygon>
                    <polygon id="Fill-174" fill="#FFFFFF" mask="url(#mask-2)" points="477.162718 219.360534 510.042256 219.360534 510.042256 206.234315 477.162718 206.234315"></polygon>
                    <polygon id="Stroke-175" stroke="#B2B2B2" stroke-width="3" mask="url(#mask-2)" points="477.162718 219.360534 510.042256 219.360534 510.042256 206.234315 477.162718 206.234315"></polygon>
                    <polygon id="Fill-176" fill="#FFFFFF" mask="url(#mask-2)" points="473.391334 219.360534 514.003915 219.360534 514.003915 212.797424 473.391334 212.797424"></polygon>
                    <polygon id="Stroke-177" stroke="#B2B2B2" stroke-width="3" mask="url(#mask-2)" points="473.391334 219.360534 514.003915 219.360534 514.003915 212.797424 473.391334 212.797424"></polygon>
                    <polygon id="Fill-178" fill="#FFFFFF" mask="url(#mask-2)" points="570.759697 11.7431662 579.969012 11.7431662 579.969012 1.25058457 570.759697 1.25058457"></polygon>
                    <polygon id="Stroke-179" stroke="#B2B2B2" stroke-width="3" mask="url(#mask-2)" points="570.759697 11.7431662 579.969012 11.7431662 579.969012 1.25058457 570.759697 1.25058457"></polygon>
                    <polygon id="Fill-180" fill="#FFFFFF" mask="url(#mask-2)" points="563.479378 25.2576113 587.248675 25.2576113 587.248675 8.24585757 563.479378 8.24585757"></polygon>
                    <polygon id="Stroke-181" stroke="#B2B2B2" stroke-width="3" mask="url(#mask-2)" points="563.479378 25.2576113 587.248675 25.2576113 587.248675 8.24585757 563.479378 8.24585757"></polygon>
                    <polygon id="Fill-182" fill="#FFFFFF" mask="url(#mask-2)" points="863.329977 218.704748 942.842662 218.704748 942.842662 155.555801 863.329977 155.555801"></polygon>
                    <polygon id="Stroke-183" stroke="#B2B2B2" stroke-width="3" mask="url(#mask-2)" points="863.329977 218.704748 942.842662 218.704748 942.842662 155.555801 863.329977 155.555801"></polygon>
                    <polygon id="Fill-184" fill="#FFFFFF" mask="url(#mask-2)" points="952.295135 164.532861 862.762169 164.532861 853.876978 147.264039 944.938706 147.264039"></polygon>
                    <polygon id="Stroke-185" stroke="#B2B2B2" stroke-width="3" mask="url(#mask-2)" points="952.295135 164.532861 862.762169 164.532861 853.876978 147.264039 944.938706 147.264039"></polygon>
                    <polygon id="Stroke-186" stroke="#B2B2B2" stroke-width="3" mask="url(#mask-2)" points="877.014037 218.704748 930.37833 218.704748 930.37833 176.067487 877.014037 176.067487"></polygon>
                    <polygon id="Fill-187" fill="#FFFFFF" mask="url(#mask-2)" points="728.013541 219.360534 864.765569 219.360534 864.765569 156.211588 728.013541 156.211588"></polygon>
                    <polygon id="Stroke-188" stroke="#B2B2B2" stroke-width="3" mask="url(#mask-2)" points="728.013541 219.360534 864.765569 219.360534 864.765569 156.211588 728.013541 156.211588"></polygon>
                    <polygon id="Stroke-189" stroke="#B2B2B2" stroke-width="3" mask="url(#mask-2)" points="742.711964 219.360534 768.32693 219.360534 768.32693 176.723273 742.711964 176.723273"></polygon>
                    <polygon id="Fill-190" fill="#FFFFFF" mask="url(#mask-2)" points="783.884216 201.290341 849.590146 201.290341 849.590146 176.897056 783.884216 176.897056"></polygon>
                    <polygon id="Stroke-191" stroke="#B2B2B2" stroke-width="3" mask="url(#mask-2)" points="783.884216 201.290341 849.590146 201.290341 849.590146 176.897056 783.884216 176.897056"></polygon>
                    <polygon id="Stroke-192" stroke="#B2B2B2" stroke-width="3" mask="url(#mask-2)" points="783.884216 201.290341 849.590146 201.290341 849.590146 176.897056 783.884216 176.897056"></polygon>
                    <polygon id="Fill-193" fill="#FFFFFF" mask="url(#mask-2)" points="792.087697 193.478614 841.38732 193.478614 841.38732 184.708783 792.087697 184.708783"></polygon>
                    <polygon id="Stroke-194" stroke="#B2B2B2" stroke-width="3" mask="url(#mask-2)" points="792.087697 193.478614 841.38732 193.478614 841.38732 184.708783 792.087697 184.708783"></polygon>
                    <polygon id="Stroke-195" stroke="#B2B2B2" stroke-width="3" mask="url(#mask-2)" points="792.087697 193.478614 841.38732 193.478614 841.38732 184.708783 792.087697 184.708783"></polygon>
                    <polygon id="Fill-196" fill="#FFFFFF" mask="url(#mask-2)" points="875.699827 157.595428 717.172453 157.595428 730.54748 122.352158 862.324799 122.352158"></polygon>
                    <polygon id="Stroke-197" stroke="#B2B2B2" stroke-width="3" mask="url(#mask-2)" points="875.699827 157.595428 717.172453 157.595428 730.54748 122.352158 862.324799 122.352158"></polygon>
                    <polygon id="Fill-198" fill="#FFFFFF" mask="url(#mask-2)" points="771.236761 130.549553 755.470172 120.30617 739.70424 130.549553 742.069556 130.549553 742.069556 152.190502 768.314398 152.190502 768.314398 130.549553"></polygon>
                    <polygon id="Stroke-199" stroke="#B2B2B2" stroke-width="3" mask="url(#mask-2)" points="771.236761 130.549553 755.470172 120.30617 739.70424 130.549553 742.069556 130.549553 742.069556 152.190502 768.314398 152.190502 768.314398 130.549553"></polygon>
                    <polygon id="Stroke-200" stroke="#B2B2B2" stroke-width="3" mask="url(#mask-2)" points="748.295554 147.425362 762.082626 147.425362 762.082626 135.594976 748.295554 135.594976"></polygon>
                    <path d="M741.741692,130.549553 L769.954897,130.549553" id="Stroke-201" stroke="#B2B2B2" stroke-width="3" mask="url(#mask-2)"></path>
                    <polygon id="Fill-202" fill="#FFFFFF" mask="url(#mask-2)" points="854.564134 130.549553 838.797545 120.30617 823.031613 130.549553 825.396929 130.549553 825.396929 152.190502 851.641771 152.190502 851.641771 130.549553"></polygon>
                    <polygon id="Stroke-203" stroke="#B2B2B2" stroke-width="3" mask="url(#mask-2)" points="854.564134 130.549553 838.797545 120.30617 823.031613 130.549553 825.396929 130.549553 825.396929 152.190502 851.641771 152.190502 851.641771 130.549553"></polygon>
                    <polygon id="Stroke-204" stroke="#B2B2B2" stroke-width="3" mask="url(#mask-2)" points="831.622927 147.425362 845.409999 147.425362 845.409999 135.594976 831.622927 135.594976"></polygon>
                    <path d="M825.069065,130.549553 L853.28227,130.549553" id="Stroke-205" stroke="#B2B2B2" stroke-width="3" mask="url(#mask-2)"></path>
                </g>
            </g>
        </g>
    </g>
</svg>